<?xml version="1.0" encoding="UTF-8" standalone="no"?><!DOCTYPE svg PUBLIC "-//W3C//DTD SVG 1.1//EN" "http://www.w3.org/Graphics/SVG/1.1/DTD/svg11.dtd"><svg width="100%" height="100%" viewBox="0 0 28 28" version="1.1" xmlns="http://www.w3.org/2000/svg" xmlns:xlink="http://www.w3.org/1999/xlink" xml:space="preserve" xmlns:serif="http://www.serif.com/" style="fill-rule:evenodd;clip-rule:evenodd;stroke-linejoin:round;stroke-miterlimit:2;"><g id="MAIN"><rect id="main_add_voice" x="0" y="-0" width="28" height="28" style="fill:none;"/><g id="main_add_voice1" serif:id="main_add_voice"><path d="M18.664,8l-9.313,0c-0.75,0 -1.344,0.594 -1.344,1.344l0,9.312c0,0.75 0.594,1.344 1.344,1.344l9.313,0c0.75,0 1.343,-0.594 1.343,-1.344l0,-9.312c0,-0.75 -0.593,-1.344 -1.343,-1.344Zm-2,6.656l-2,0l-0,2c-0,0.375 -0.282,0.688 -0.657,0.688c-0.375,-0 -0.656,-0.313 -0.656,-0.688l0,-2l-2,0c-0.375,0 -0.687,-0.281 -0.687,-0.656c-0,-0.375 0.312,-0.656 0.687,-0.656l2,-0l0,-2c0,-0.375 0.281,-0.688 0.656,-0.688c0.375,0 0.657,0.313 0.657,0.688l-0,2l2,-0c0.375,-0 0.687,0.281 0.687,0.656c0,0.375 -0.312,0.656 -0.687,0.656Z" style="fill:#eee8d8;fill-rule:nonzero;"/></g></g></svg>